<svg xmlns="http://www.w3.org/2000/svg" version="1.1" xmlns:xlink="http://www.w3.org/1999/xlink" width="1000" height="1000"><metadata><rdf:RDF xmlns:rdf="http://www.w3.org/1999/02/22-rdf-syntax-ns#" xmlns:dc="http://purl.org/dc/elements/1.1/"><rdf:Description><dc:creator>RealFaviconGenerator</dc:creator><dc:source>https://realfavicongenerator.net</dc:source></rdf:Description></rdf:RDF></metadata><style>
    #light-icon {
      display: inline;
    }
    #dark-icon {
      display: none;
    }

    @media (prefers-color-scheme: dark) {
      #light-icon {
        display: none;
      }
      #dark-icon {
        display: inline;
      }
    }
  </style><g id="light-icon"><svg xmlns="http://www.w3.org/2000/svg" version="1.1" xmlns:xlink="http://www.w3.org/1999/xlink" width="1000" height="1000"><g><g transform="matrix(1.953125,0,0,1.953125,0,0)"><svg xmlns="http://www.w3.org/2000/svg" width="512" height="512" viewBox="0 0 512 512" fill="none"><g clip-path="url(#clip0_5_4)">
<rect width="512" height="512" fill="#0284C7"></rect>
<path d="M68 105.506L105.506 68L143.013 96.1297L180.519 68L218.025 96.1297L255.531 68L293.037 96.1297L330.544 68L368.05 96.1297L405.556 68L443.062 105.506L414.933 143.013L443.062 180.519L414.933 218.025L443.062 255.531L414.933 293.037L443.062 330.544L414.933 368.05L443.062 405.556L405.556 443.062L368.05 414.933L330.544 443.062L293.037 414.933L255.531 443.062L218.025 414.933L180.519 443.062L143.013 414.933L105.506 443.062L68 405.556L96.1297 368.05L68 330.544L96.1297 293.037L68 255.531L96.1297 218.025L68 180.519L96.1297 143.013L68 105.506Z" fill="white" stroke="black" stroke-width="15" stroke-linecap="round" stroke-linejoin="round"></path>
<path d="M255.531 344.362C304.591 344.362 344.362 304.591 344.362 255.531C344.362 206.471 304.591 166.701 255.531 166.701C206.471 166.701 166.701 206.471 166.701 255.531C166.701 304.591 206.471 344.362 255.531 344.362Z" stroke="black" stroke-width="15" stroke-linecap="round" stroke-linejoin="round"></path>
<circle cx="256" cy="256" r="112" fill="#0284C7"></circle>
<path d="M256.038 368.5C240.488 368.5 225.862 365.55 212.163 359.65C198.471 353.742 186.558 345.725 176.425 335.6C166.292 325.475 158.271 313.575 152.363 299.9C146.454 286.225 143.5 271.604 143.5 256.038C143.5 240.471 146.454 225.846 152.363 212.163C158.263 198.471 166.267 186.558 176.375 176.425C186.483 166.292 198.388 158.271 212.088 152.363C225.788 146.454 240.412 143.5 255.962 143.5C271.512 143.5 286.138 146.454 299.837 152.363C313.529 158.263 325.442 166.271 335.575 176.388C345.708 186.504 353.729 198.408 359.638 212.1C365.546 225.792 368.5 240.412 368.5 255.962C368.5 271.512 365.55 286.138 359.65 299.837C353.75 313.537 345.733 325.45 335.6 335.575C325.467 345.7 313.567 353.721 299.9 359.638C286.233 365.554 271.613 368.508 256.038 368.5ZM256 356C283.917 356 307.562 346.312 326.937 326.937C346.312 307.562 356 283.917 356 256C356 254.542 355.987 253.071 355.962 251.588C355.937 250.104 355.846 248.683 355.688 247.325C355.129 252.883 352.921 257.483 349.062 261.125C345.196 264.758 340.458 266.575 334.85 266.575H303.113C297.296 266.575 292.317 264.508 288.175 260.375C284.033 256.242 281.962 251.271 281.962 245.462V234.9H239.65V213.775C239.65 207.967 241.725 202.975 245.875 198.8C250.017 194.625 254.996 192.537 260.813 192.537H271.387V182.912C271.387 176.846 273.371 172.071 277.337 168.587C281.304 165.104 286.042 163.096 291.55 162.563C285.942 160.396 280.192 158.762 274.3 157.662C268.408 156.562 262.308 156.008 256 156C228.083 156 204.437 165.687 185.062 185.062C165.687 204.437 156 228.083 156 256V259.612C156 260.729 156.083 261.929 156.25 263.212H212.25C224.083 263.212 234.092 267.308 242.275 275.5C250.467 283.683 254.563 293.654 254.563 305.413V316.1H222.825V350.225C227.958 352.075 233.317 353.5 238.9 354.5C244.483 355.5 250.183 356 256 356Z" fill="black"></path>
</g><defs>
<clipPath id="clip0_5_4">
<rect width="512" height="512" fill="white"></rect>
</clipPath>
</defs></svg></g></g></svg></g><g id="dark-icon"><svg xmlns="http://www.w3.org/2000/svg" version="1.1" xmlns:xlink="http://www.w3.org/1999/xlink" width="1000" height="1000"><g><g transform="matrix(1.953125,0,0,1.953125,0,0)"><svg xmlns="http://www.w3.org/2000/svg" width="512" height="512" viewBox="0 0 512 512" fill="none"><g clip-path="url(#clip0_5_8)">
<rect width="512" height="512" fill="#38BDF8"></rect>
<path d="M68 105.506L105.506 68L143.013 96.1297L180.519 68L218.025 96.1297L255.531 68L293.037 96.1297L330.544 68L368.05 96.1297L405.556 68L443.062 105.506L414.933 143.013L443.062 180.519L414.933 218.025L443.062 255.531L414.933 293.037L443.062 330.544L414.933 368.05L443.062 405.556L405.556 443.062L368.05 414.933L330.544 443.062L293.037 414.933L255.531 443.062L218.025 414.933L180.519 443.062L143.013 414.933L105.506 443.062L68 405.556L96.1297 368.05L68 330.544L96.1297 293.037L68 255.531L96.1297 218.025L68 180.519L96.1297 143.013L68 105.506Z" fill="white" stroke="black" stroke-width="15" stroke-linecap="round" stroke-linejoin="round"></path>
<path d="M255.531 344.362C304.591 344.362 344.362 304.591 344.362 255.531C344.362 206.471 304.591 166.701 255.531 166.701C206.471 166.701 166.701 206.471 166.701 255.531C166.701 304.591 206.471 344.362 255.531 344.362Z" stroke="black" stroke-width="15" stroke-linecap="round" stroke-linejoin="round"></path>
<circle cx="256" cy="256" r="112" fill="#38BDF8"></circle>
<path d="M256.038 368.5C240.488 368.5 225.862 365.55 212.163 359.65C198.471 353.742 186.558 345.725 176.425 335.6C166.292 325.475 158.271 313.575 152.363 299.9C146.454 286.225 143.5 271.604 143.5 256.038C143.5 240.471 146.454 225.846 152.363 212.163C158.263 198.471 166.267 186.558 176.375 176.425C186.483 166.292 198.388 158.271 212.088 152.363C225.788 146.454 240.412 143.5 255.962 143.5C271.512 143.5 286.138 146.454 299.837 152.363C313.529 158.263 325.442 166.271 335.575 176.388C345.708 186.504 353.729 198.408 359.638 212.1C365.546 225.792 368.5 240.412 368.5 255.962C368.5 271.512 365.55 286.138 359.65 299.837C353.75 313.537 345.733 325.45 335.6 335.575C325.467 345.7 313.567 353.721 299.9 359.638C286.233 365.554 271.613 368.508 256.038 368.5ZM256 356C283.917 356 307.562 346.312 326.937 326.937C346.312 307.562 356 283.917 356 256C356 254.542 355.987 253.071 355.962 251.588C355.937 250.104 355.846 248.683 355.688 247.325C355.129 252.883 352.921 257.483 349.062 261.125C345.196 264.758 340.458 266.575 334.85 266.575H303.113C297.296 266.575 292.317 264.508 288.175 260.375C284.033 256.242 281.962 251.271 281.962 245.462V234.9H239.65V213.775C239.65 207.967 241.725 202.975 245.875 198.8C250.017 194.625 254.996 192.537 260.813 192.537H271.387V182.912C271.387 176.846 273.371 172.071 277.337 168.587C281.304 165.104 286.042 163.096 291.55 162.563C285.942 160.396 280.192 158.762 274.3 157.662C268.408 156.562 262.308 156.008 256 156C228.083 156 204.437 165.687 185.062 185.062C165.687 204.437 156 228.083 156 256V259.612C156 260.729 156.083 261.929 156.25 263.212H212.25C224.083 263.212 234.092 267.308 242.275 275.5C250.467 283.683 254.563 293.654 254.563 305.413V316.1H222.825V350.225C227.958 352.075 233.317 353.5 238.9 354.5C244.483 355.5 250.183 356 256 356Z" fill="#18181B"></path>
</g><defs>
<clipPath id="clip0_5_8">
<rect width="512" height="512" fill="white"></rect>
</clipPath>
</defs></svg></g></g></svg></g></svg>